<svg xmlns="http://www.w3.org/2000/svg" viewBox="0 0 590.31 88.74"><defs>
<style>.cls-1{fill:#ffff;}.cls-2{fill:#ffff;}.cls-3{fill:#ffff;}.cls-4{fill:#ffff;}.cls-5{fill:#ffff;}.cls-6{fill:#ffff;}.cls-7{fill:#ffff;}.cls-8{fill:#ffff;}.cls-9{fill:#ffff;}.cls-10{fill:#ffff;}</style></defs><title>sheyla-logo</title><g id="Capa_2" data-name="Capa 2"><g id="Capa_1-2" data-name="Capa 1"><path class="cls-1" d="M133.36.07c-.65,2.25-1.18,4.56-2,6.77A123.37,123.37,0,0,1,106.61,48c-1.47,1.65-3,3.24-4.61,4.79a2.15,2.15,0,0,1-1.47.58C95.44,53,90.35,52.53,85.28,52c-5.84-.65-11.66-1.36-17.47-2.19-17.29-2.48-34.46-5.49-51-11.22A64.29,64.29,0,0,1,1.05,31a12.79,12.79,0,0,1-1-.9l.15-.28c1.2.24,2.39.51,3.6.72A35.3,35.3,0,0,0,25,27.67c3-1.36,5.66-3.27,8.49-4.91a2.91,2.91,0,0,1,1.12-.45c7.42-.48,14.87-.68,22.26-1.43,25-2.55,49.27-8.22,72.23-18.76,1.45-.66,2.88-1.35,4.32-2Z"/><path class="cls-2" d="M133.6,34c-.91,2.78-1.68,5.44-2.64,8a124.65,124.65,0,0,1-28.65,44.46,2.42,2.42,0,0,1-2.21.82c-6.63-.69-13.29-1.22-19.91-2-8.28-1-16.56-2.14-24.79-3.51C41,79.4,26.72,76.44,13.05,71.13A57,57,0,0,1,.88,64.87,2,2,0,0,1,.11,63.8c1.48.29,2.94.65,4.43.86C15.12,66.1,24.5,63.1,33.08,57a4.19,4.19,0,0,1,2.16-.77c9.23-.23,18.42-1,27.6-2,2-.22,4,.42,6,.66,6.89.81,13.77,1.67,20.67,2.43,3.9.43,7.82.68,11.73,1.09a3.62,3.62,0,0,0,3.16-1,130.52,130.52,0,0,0,14.09-16.08,4.72,4.72,0,0,1,1.83-1.41C124.65,37.94,129,36.06,133.6,34Z"/><path class="cls-3" d="M196.51,29.62c2.11,0,4.05,0,6,0a13.31,13.31,0,0,1,12.22,9,12.06,12.06,0,0,1,.57,3.47c.05,8.4,0,16.8,0,25.2a3.9,3.9,0,0,1-2.6,3.91,4.48,4.48,0,0,1-4.93-1.11,4.1,4.1,0,0,1-.95-3c0-7.94,0-15.88,0-23.82,0-4.12-1.78-5.89-6-5.89h-4.38v1.39q0,14.2,0,28.4a4.23,4.23,0,0,1-6.19,3.88A3.81,3.81,0,0,1,188,67.41V62.72c0-15.42,0-30.84,0-46.27a4.3,4.3,0,0,1,5.67-4.23,4,4,0,0,1,2.86,4.08c0,4,0,7.94,0,11.91Z"/><path class="cls-3" d="M165.41,13.42c5.7.26,10.13,2.1,13.38,6.33,1.87,2.42,1.62,4.76-.58,6.38a4.73,4.73,0,0,1-6.56-1.24c-2.49-3.33-6.47-4.11-9.79-1.92a5.78,5.78,0,0,0-.84,9.38q7.32,6.91,14.65,13.83A14.08,14.08,0,0,1,175,68c-7.16,6.06-19.12,4.6-24.39-3-1.57-2.25-1.45-4.32.31-5.81a4.81,4.81,0,0,1,6.38.23c.41.39.72.88,1.09,1.31a7.09,7.09,0,0,0,7.48,2.53,6.51,6.51,0,0,0,5.37-5,6.21,6.21,0,0,0-2-6.3c-4.77-4.46-9.48-9-14.29-13.39-4.15-3.81-6-8.39-4.54-13.89,1.45-5.7,5.42-9,11-10.59A32.46,32.46,0,0,1,165.41,13.42Z"/><path class="cls-3" d="M270.7,54c1.36-4.14,2.66-8.12,4-12.09,1.08-3.29,2.14-6.59,3.25-9.87a4.22,4.22,0,0,1,4.42-2.75,4.05,4.05,0,0,1,3.87,3.44A4.39,4.39,0,0,1,286,34.6q-7.38,22.65-14.82,45.27a13.69,13.69,0,0,1-13.49,8.84,3.88,3.88,0,0,1,.08-7.76,10.34,10.34,0,0,0,2-.27A4.66,4.66,0,0,0,263,77.59c1-3.15,2-6.3,3-9.47a2.7,2.7,0,0,0-.13-1.53Q260.77,50.8,255.58,35c-.86-2.64.07-4.73,2.47-5.5a4.35,4.35,0,0,1,5.62,2.92Q267,42.63,270.3,52.84C270.41,53.16,270.53,53.48,270.7,54Z"/><path class="cls-3" d="M232.33,54.33a37.76,37.76,0,0,0,0,5.64c.55,3.53,5.44,5,8.45,2.52a4.69,4.69,0,0,1,4-1.27,4,4,0,0,1,3.29,2.69,3.41,3.41,0,0,1-.95,3.87c-7.57,6.75-18.21,3.56-21.87-2.94a12.49,12.49,0,0,1-1.53-6.36c0-5.42.08-10.84,0-16.25-.13-6.85,5.23-12,11.52-12.81,5.57-.72,10.23,1,13.64,5.64A11.15,11.15,0,0,1,251,41.81c0,2.74,0,5.49,0,8.24a3.88,3.88,0,0,1-3.61,4.12,39.18,39.18,0,0,1-4.34.11h-10C232.89,54.28,232.63,54.32,232.33,54.33Zm10.23-7.88c0-1.73.08-3.33,0-4.92a4.86,4.86,0,0,0-4.66-4.5c-2.4-.27-5,1.19-5.39,3.43a36.19,36.19,0,0,0-.07,6Z"/><path class="cls-3" d="M327.1,46.13c0-1.72.09-3.28,0-4.83a4.33,4.33,0,0,0-2.86-3.83,5,5,0,0,0-5.37.71,4.87,4.87,0,0,1-3.31,1.33,4.24,4.24,0,0,1-4-2.7c-.57-1.5-.08-3,1.42-4.24,6.17-5.27,16.07-4.1,20.56,2.42a11.22,11.22,0,0,1,2.07,6.44q0,12.81,0,25.64a3.73,3.73,0,0,1-3.39,4A87.2,87.2,0,0,1,319,70.74a12.31,12.31,0,0,1-10.6-13.1c.28-5,4.47-9.86,10-11a55,55,0,0,1,7.73-.51C326.36,46.11,326.66,46.13,327.1,46.13ZM327,63.24V53.92c-1.88,0-3.67-.06-5.45,0a4.86,4.86,0,0,0-4.76,4.25,4.5,4.5,0,0,0,3.84,5A50.06,50.06,0,0,0,327,63.24Z"/><path class="cls-3" d="M293,39.12c0-7.59.11-15.18,0-22.77a4.32,4.32,0,0,1,6.5-3.75,4,4,0,0,1,2,3.71q0,13.4,0,26.78c0,6,0,12.06,0,18.09a3.25,3.25,0,0,0,1.63,3c2.08,1.31,2.7,3.18,1.75,5.05a4.2,4.2,0,0,1-5.51,1.85c-3.78-1.82-6.2-4.8-6.28-9.1-.13-7.62,0-15.26,0-22.89Z"/><path class="cls-4" d="M350.49,31.92c2.77,0,5.4,0,8,0a11,11,0,0,1,10.36,7.59,10.65,10.65,0,0,1,.39,2.81c0,5.27-.1,10.54,0,15.8.15,5.58-4.56,10.34-10.29,10.63-3.38.17-6.79.06-10.18,0-1.3,0-1.77-.55-1.77-2V16.46c0-.79,0-1.54.86-1.94a1.72,1.72,0,0,1,2.55,1.7c0,4.77,0,9.54,0,14.31Zm.09,3.23V65.62c2.9,0,5.73.13,8.54,0a7.15,7.15,0,0,0,6.74-7.29q0-7.9,0-15.8a7.05,7.05,0,0,0-6.36-7.29C356.57,34.92,353.58,35.15,350.58,35.15Z"/><path class="cls-3" d="M509.49,52c0,2.95-.39,5.83.08,8.55.9,5.18,7.92,7.28,12.35,3.92a6,6,0,0,1,1-.72,1.57,1.57,0,0,1,2,.51,1.41,1.41,0,0,1-.28,2,11,11,0,0,1-11.62,2.22C509,67,506.15,64.1,506,59.56c-.22-6.1-.25-12.22,0-18.31.22-5.64,5.63-10,11.44-9.66,5.21.31,9.46,3.58,10.44,8.22a23,23,0,0,1,.26,4.32c0,1.8,0,3.59,0,5.38,0,2-.38,2.43-2.4,2.44H509.49Zm15.23-3.18c0-2.5.11-4.87,0-7.23-.21-3.69-3.05-6.39-7-6.83-3.58-.4-7.47,1.89-8.1,5.29a66.68,66.68,0,0,0-.49,8.77Z"/><path class="cls-3" d="M473.55,35.07v1.52q0,15.27,0,30.56c0,1-.24,1.81-1.4,2a1.6,1.6,0,0,1-2-1.52c0-.3,0-.61,0-.92V34.42c0-2.16.34-2.5,2.53-2.5,3,0,6,0,8.93,0a11,11,0,0,1,10.51,8.15,11.28,11.28,0,0,1,.25,2.39q0,12.24,0,24.49c0,1.57-.5,2.23-1.68,2.2-.93,0-1.63-.4-1.69-1.47q0-.63,0-1.26Q489,54.7,489,43c0-4.7-2.94-7.76-7.62-7.88C478.81,35,476.26,35.07,473.55,35.07Z"/><path class="cls-5" d="M401.6,65.62V33.74c0-1.45.34-2,1.39-2.12a1.58,1.58,0,0,1,2,1.69q0,16.89,0,33.77c0,.93-.4,1.68-1.34,1.67-4.11,0-8.28.27-12.32-.31A10.28,10.28,0,0,1,382.77,58c.13-8.13,0-16.26,0-24.39,0-1,.19-1.75,1.3-2,1.35-.26,2.12.41,2.12,1.92q0,7.32,0,14.65c0,3.36,0,6.71,0,10.07a7.16,7.16,0,0,0,6.74,7.3C395.77,65.75,398.6,65.62,401.6,65.62Z"/><path class="cls-4" d="M548.83,69.25c-3.52-.28-6.62-1.42-8.81-4.38-.81-1.09-.74-2,.13-2.59a1.77,1.77,0,0,1,2.65.66c2.13,3.5,7.89,4.17,11,1.31a6.14,6.14,0,0,0-.64-9.91c-3-2-6.09-3.93-9.09-6a8.84,8.84,0,0,1-.49-14.72,10.69,10.69,0,0,1,14.75,1.9c.88,1.15.92,2.11.1,2.71s-1.94.34-2.73-.71a7.15,7.15,0,0,0-9.31-1.88A5.86,5.86,0,0,0,546,45.82c2.91,2,5.9,3.79,8.84,5.7a9.39,9.39,0,0,1,4.54,7.78c.22,4.66-3.55,8.94-8.47,9.71C550.21,69.11,549.53,69.17,548.83,69.25Z"/><path class="cls-4" d="M590.31,59.08a9.91,9.91,0,0,1-8.12,9.85,10.9,10.9,0,0,1-11.07-3.86c-1-1.2-1-2.13-.06-2.77s1.92-.41,2.8.8a7,7,0,0,0,7.26,2.84,6.52,6.52,0,0,0,5.51-4.58A6,6,0,0,0,584,54.29c-2.92-1.95-5.89-3.82-8.81-5.76-3.76-2.49-5.38-6.66-3.92-10.5A9.52,9.52,0,0,1,580,31.61a10.09,10.09,0,0,1,9.61,4.4,1.49,1.49,0,0,1-.29,2.3,1.85,1.85,0,0,1-2.58-.64,6.93,6.93,0,0,0-8.11-2.55A5.86,5.86,0,0,0,574.29,40a5.77,5.77,0,0,0,2.88,6c2.89,1.84,5.79,3.69,8.66,5.56A9.29,9.29,0,0,1,590.31,59.08Z"/><path class="cls-4" d="M427.85,69.26c-3.77-.29-6.86-1.44-9.05-4.39-.8-1.07-.71-2,.14-2.6a1.84,1.84,0,0,1,2.66.68,7.42,7.42,0,0,0,10.52,1.64,6.13,6.13,0,0,0-.22-10.26c-2.93-2-5.93-3.89-8.9-5.82a9.16,9.16,0,0,1-4.23-6.13,8.44,8.44,0,0,1,2.64-7.9,10.66,10.66,0,0,1,15.69,1.09c.88,1.18.91,2.12.09,2.71s-1.94.33-2.75-.73a7.13,7.13,0,0,0-9.59-1.68,5.82,5.82,0,0,0-.18,9.88c2.91,2,5.9,3.8,8.85,5.7a9.43,9.43,0,0,1-2.75,17.3A27.78,27.78,0,0,1,427.85,69.26Z"/><path class="cls-6" d="M454.74,50.37V67.08c0,1.45-.5,2.08-1.65,2.09s-1.75-.65-1.75-2.14V33.72c0-1.47.48-2.08,1.63-2.13s1.77.55,1.77,1.84C454.75,39.08,454.74,44.72,454.74,50.37Z"/><path class="cls-6" d="M455.68,20.2a2.5,2.5,0,0,1-2.63,2.44,2.66,2.66,0,0,1-2.64-2.36A2.65,2.65,0,0,1,453,17.77,2.54,2.54,0,0,1,455.68,20.2Z"/><path class="cls-1" d="M133.37.09s0-.06,0-.08h.05l-.1.07Z"/><path style="fill:transparent" d="M242.56,46.45H232.42a36.19,36.19,0,0,1,.07-6c.37-2.24,3-3.7,5.39-3.43a4.86,4.86,0,0,1,4.66,4.5C242.64,43.12,242.56,44.72,242.56,46.45Z"/><path style="fill:transparent" d="M327,63.24a50.06,50.06,0,0,1-6.37-.06,4.5,4.5,0,0,1-3.84-5,4.86,4.86,0,0,1,4.76-4.25c1.78-.07,3.57,0,5.45,0Z"/><path style="fill:transparent" d="M350.58,35.15c3,0,6-.23,8.92.05a7.05,7.05,0,0,1,6.36,7.29q0,7.9,0,15.8a7.15,7.15,0,0,1-6.74,7.29c-2.81.17-5.64,0-8.54,0Z"/><path style="fill:transparent" d="M524.72,48.77H509.15a66.68,66.68,0,0,1,.49-8.77c.63-3.4,4.52-5.69,8.1-5.29,3.91.44,6.75,3.14,7,6.83C524.83,43.9,524.72,46.27,524.72,48.77Z"/></g></g></svg>
